<?xml version="1.0" encoding="UTF-8"?>
<svg id="Layer_2" data-name="Layer 2" xmlns="http://www.w3.org/2000/svg" viewBox="0 0 628.71 325.82">
  <defs>
    <style>
      .cls-1 {
        fill: #fff;
      }

      .cls-2 {
        fill: #fd287e;
      }
    </style>
  </defs>
  <circle class="cls-2" cx="194.87" cy="102.52" r="30.14" transform="translate(-15.42 167.82) rotate(-45)"/>
  <path class="cls-1" d="M330.44,0V101.53c0,15.93-12.96,30.8-28.9,30.8-17.43,0-31.23-14.5-31.23-31.93l.55-42.81h-16.31v43.13c0,25.91,21.08,47,47,47,24.41,0,44.28-19.86,44.28-44.28V0h-15.38Z"/>
  <rect class="cls-1" x="365.79" y="56.83" width="15.91" height="91.3"/>
  <path class="cls-1" d="M469.07,147.79h-66.19V57.01h66.19c25.41,0,46.09,20.68,46.09,46.09s-20.68,44.69-46.09,44.69Zm-50.81-15.38h50.81c16.93,0,30.71-12.37,30.71-29.31s-13.78-30.71-30.71-30.71h-50.81v60.02Z"/>
  <g>
    <polygon class="cls-1" points="327.1 273.91 345.14 273.91 299.6 183.56 254.4 273.91 272.31 273.91 299.6 219.36 327.1 273.91"/>
    <polygon class="cls-2" points="299.6 219.36 272.31 273.91 327.1 273.91 299.6 219.36"/>
  </g>
  <path class="cls-1" d="M358.78,274.1v-90.36h15.15l37.32,72.55,36.56-72.36h15.53v90.93h-14.97v-57.78l-27.85,57.02h-18l-28.41-56.07v56.26s-15.15,0-15.34-.19Z"/>
  <g>
    <polygon class="cls-1" points="499.52 198.52 575.11 198.52 575.11 183.75 484.37 183.75 484.37 274.1 575.11 274.1 575.11 258.76 499.52 258.76 499.52 198.52"/>
    <rect class="cls-2" x="499.52" y="198.52" width="75.58" height="60.24"/>
  </g>
  <path class="cls-1" d="M246.34,274.07l-7.97-15.38-19.39-37.43h-53.61v15.15h44.33l11.28,22.28h-49.25c-15.93,0-30.8-12.96-30.8-28.9,0-17.43,14.5-31.23,31.93-31.23l64.81,.42,.06,.11,.05-.11,7.53-15.99-.1-.2-22.44-44.47c10.93-8.3,18-21.44,18-36.23,0-25.11-20.36-45.47-45.47-45.47s-45.47,20.36-45.47,45.47,20.36,45.47,45.47,45.47c5.04,0,9.87-.83,14.4-2.34l19.55,37.57h-56.7c-25.91,0-47,21.08-47,47,0,24.41,19.86,44.28,44.28,44.28h58.94l26.21,51.75h18.19l-26.81-51.75Zm-51.47-141.4c-16.65,0-30.14-13.5-30.14-30.14s13.5-30.14,30.14-30.14,30.14,13.5,30.14,30.14c0,8.57-3.58,16.29-9.32,21.78l-11.3-22.39h-17.24l15.48,29.74c-2.48,.66-5.08,1.02-7.77,1.02Z"/>
  <path class="cls-1" d="M129.76,102.13c-4.81-4.36-11.24-7.98-18.29-7.98h-42.19c-6.58,0-11.18-4.57-11.18-11.09s5.35-11.09,11.94-11.09h59.74l-.19-14.95h-59.85c-14.69,0-26.45,10.91-26.45,25.48,0,4.52,.45,9.06,2.48,12.79h-.06c4.52,8.23,14.12,13.64,24.22,13.64h37.75l4.58,.19c6.67,0,11.21,5.39,11.21,11.94s-5.43,11.13-12.1,11.13H0v15.95H111.47c14.89,0,27.01-11.9,27.01-26.52,0-7.7-3.36-14.64-8.71-19.49Z"/>
  <rect class="cls-1" x="533.05" y="221.06" width="95.66" height="15.15"/>
</svg>